<?xml version="1.0" encoding="UTF-8"?>
<svg width="275px" height="47px" viewBox="0 0 275 47" version="1.1" xmlns="http://www.w3.org/2000/svg" xmlns:xlink="http://www.w3.org/1999/xlink">
    <!-- Generator: Sketch 54.1 (76490) - https://sketchapp.com -->
    <title>LOGO FOOTER</title>
    <desc>Created with Sketch.</desc>
    <g id="LOGO-FOOTER" stroke="none" stroke-width="1" fill="none" fill-rule="evenodd">
        <path d="M113.497429,12.8354722 L98.4444222,12.8354722 L97.7692453,12.8354722 L97.7692453,13.5095463 L97.7692453,14.5381574 L97.7692453,15.2206574 L104.621545,15.2206574 L104.621545,36.9964907 C104.621545,37.0016759 104.624139,37.006213 104.624139,37.01075 L104.624139,37.6705648 L105.296073,37.6705648 L106.64513,37.6705648 L107.317712,37.6705648 L107.317712,37.0139907 L107.317712,36.9964907 L107.317712,15.2206574 L114.171958,15.2206574 L114.171958,14.5381574 L114.171958,13.5095463 L114.171958,12.8354722 L113.497429,12.8354722 Z" id="Fill-1" fill="#005A9E"></path>
        <polygon id="Fill-3" fill="#005A9E" points="92.4795814 12.8354722 92.4795814 12.8354722 91.0591804 12.8354722 91.0585318 12.8354722 90.3846521 12.8354722 90.3846521 13.5095463 90.3846521 36.9964907 90.3846521 37.6705648 91.0591804 37.6705648 92.4795814 37.6705648 93.1541097 37.6705648 93.1541097 36.9964907 93.1541097 13.5095463 93.1541097 12.8354722"></polygon>
        <polygon id="Fill-5" fill="#005A9E" points="73.3418514 24.5432315 85.9185613 12.8357315 82.1126651 12.8357315 70.6794104 23.6935093 70.6794104 12.8357315 67.9099528 12.8357315 67.9099528 37.6708241 70.6794104 37.6708241 70.6794104 25.573787 82.2449764 37.6708241 86.183184 37.6708241"></polygon>
        <polygon id="Fill-7" fill="#005A9E" points="153.850307 8.71584259 160.493113 3.74325 162.62112 7.16612037 154.493703 9.83973148"></polygon>
        <polygon id="Fill-9" fill="#005A9E" points="166.151238 37.6707593 166.151238 32.4434444 155.641568 32.4434444 155.641568 27.6905741 164.45 27.6905741 164.45 22.4632593 155.641568 22.4502963 155.641568 18.0629815 166.151238 18.0629815 166.151238 12.8356667 150.103302 12.8356667 150.103302 37.6707593"></polygon>
        <polygon id="Fill-11" fill="#005A9E" points="140.490041 12.9385926 139.415985 12.9385926 130.743756 28.4267407 122.072176 12.9385926 120.997471 12.9385926 116.517695 37.6706296 122.12536 37.6706296 123.956963 27.1978519 130.743756 38.3563704 137.531197 27.1978519 139.362801 37.6706296 144.970466 37.6706296"></polygon>
        <path d="M180.565519,32.419787 L177.157205,32.419787 L177.157205,18.0509907 L180.565519,18.0509907 C184.577665,18.0509907 187.488514,21.2081204 187.488514,25.2175648 C187.488514,29.2620093 184.577665,32.419787 180.565519,32.419787 M180.920295,12.8353426 L176.201191,12.8353426 L172.258443,12.8353426 L171.618939,12.8353426 L171.618939,13.5094167 L171.618939,36.9970093 L171.618939,37.6749722 L176.201191,37.6749722 L176.201191,37.6710833 L180.920295,37.6710833 C187.773243,37.6710833 193.382854,32.10025 193.382854,25.2175648 C193.382854,18.4048796 187.773243,12.8353426 180.920295,12.8353426" id="Fill-13" fill="#005A9E"></path>
        <polygon id="Fill-15" fill="#005A9E" points="203.360035 12.8354722 199.099481 12.8354722 198.424953 12.8354722 198.424953 13.5095463 198.424953 36.9964907 198.424953 37.6705648 199.099481 37.6705648 203.360035 37.6705648 204.034564 37.6705648 204.034564 36.9964907 204.034564 13.5095463 204.034564 12.8354722"></polygon>
        <path d="M225.942075,30.9152407 C224.6475,32.001537 222.978691,32.5978333 221.306639,32.5978333 C217.294493,32.5978333 214.347972,29.1911667 214.347972,25.2173704 C214.347972,21.2442222 217.294493,17.8375556 221.306639,17.8375556 C222.978691,17.8375556 224.6475,18.4332037 225.942075,19.5195 C226.179458,19.7307963 226.578337,20.0950556 226.578337,20.0950556 L230.235059,16.2761667 C230.221439,16.2508889 229.877689,15.9196852 229.72138,15.7796852 C227.306698,13.5798704 224.679281,12.4806111 221.128927,12.4806111 C214.028219,12.4806111 208.312241,18.1214444 208.312241,25.2173704 C208.312241,32.3139444 214.028219,37.9547778 221.128927,37.9547778 C224.679281,37.9547778 227.306698,36.8555185 229.72138,34.6550556 C229.877689,34.5157037 230.221439,34.1838519 230.235059,34.1592222 L226.578337,30.3403333 C226.578337,30.3403333 226.179458,30.7045926 225.942075,30.9152407" id="Fill-17" fill="#005A9E"></path>
        <path d="M244.099599,29.1556481 L241.45467,29.1556481 L244.099599,23.3417593 L246.744528,29.1556481 L244.099599,29.1556481 Z M255.948597,36.7746296 C255.944705,36.7655556 255.944057,36.7571296 255.939517,36.7480556 L245.058208,13.3661111 L244.658031,12.4800926 L244.223479,12.4800926 L244.099599,12.4800926 L243.975719,12.4800926 L243.541167,12.4800926 L243.140991,13.3661111 L232.259682,36.7480556 C232.255142,36.7571296 232.254493,36.7655556 232.250601,36.7746296 L231.840047,37.6710185 L232.863514,37.6710185 L234.041344,37.6710185 L235.600542,37.6710185 L236.769292,37.6710185 L237.683797,37.6710185 L238.205908,36.465463 L239.324717,33.9811111 L244.099599,33.9811111 L248.874481,33.9811111 L249.99329,36.465463 L250.51605,37.6710185 L251.430554,37.6710185 L252.598656,37.6710185 L254.157854,37.6710185 L255.336333,37.6710185 L256.359151,37.6710185 L255.948597,36.7746296 Z" id="Fill-19" fill="#005A9E"></path>
        <polygon id="Fill-21" fill="#005A9E" points="265.300218 32.3960648 265.300218 12.8356019 264.569263 12.8356019 260.343732 12.8356019 259.669204 12.8356019 259.669204 13.5096759 259.669204 36.9966204 259.669204 37.6706944 259.989605 37.6706944 260.343732 37.6706944 265.300218 37.6706944 273.693555 37.6706944 274.368084 37.6706944 274.368084 36.9966204 274.368084 33.1297685 274.368084 32.3960648"></polygon>
        <path d="M30.4991863,22.9086667 L25.6380425,22.9086667 C25.5452948,22.9086667 25.4707075,22.8334815 25.4707075,22.7414444 L25.4707075,17.8835741 C25.4707075,17.5718148 25.2171108,17.3183889 24.9051415,17.3183889 L21.0136321,17.3183889 C20.7023113,17.3183889 20.4487146,17.5718148 20.4487146,17.8835741 L20.4487146,22.7414444 C20.4487146,22.8334815 20.3741274,22.9086667 20.2813797,22.9086667 L15.4202358,22.9086667 C15.1082665,22.9086667 14.8553184,23.1614444 14.8553184,23.4732037 L14.8553184,27.3620926 C14.8553184,27.6738519 15.1082665,27.9266296 15.4202358,27.9266296 L20.2813797,27.9266296 C20.3741274,27.9266296 20.4487146,28.0018148 20.4487146,28.0938519 L20.4487146,32.9517222 C20.4487146,33.2641296 20.7023113,33.5162593 21.0136321,33.5162593 L24.9051415,33.5162593 C25.2171108,33.5162593 25.4707075,33.2641296 25.4707075,32.9517222 L25.4707075,28.0938519 C25.4707075,28.0018148 25.5452948,27.9266296 25.6380425,27.9266296 L30.4991863,27.9266296 C30.8105071,27.9266296 31.0641038,27.6738519 31.0641038,27.3620926 L31.0641038,23.4732037 C31.0641038,23.1614444 30.8105071,22.9086667 30.4991863,22.9086667" id="Fill-23" fill="#FF5C4A"></path>
        <g id="Group-27" transform="translate(13.620283, 0.236574)" fill="#005A9E">
            <path d="M0.58353184,7.39977778 L1.83076061,7.39977778 C2.03571344,7.39977778 2.20175118,7.23385185 2.20175118,7.02903704 L2.20175118,5.85912963 C2.20175118,3.94838889 3.7518691,2.39996296 5.66389741,2.39996296 L13.0156073,2.39996296 C14.9276356,2.39996296 16.477105,3.94838889 16.477105,5.85912963 L16.477105,7.02903704 C16.477105,7.23385185 16.6431427,7.39977778 16.8480955,7.39977778 L18.0953243,7.39977778 C18.3002771,7.39977778 18.4663149,7.23385185 18.4663149,7.02903704 L18.4663149,5.85912963 C18.4663149,2.85042593 16.0256899,0.411444444 13.0149587,0.411444444 L5.66324882,0.411444444 C2.65251769,0.411444444 0.212541274,2.85042593 0.212541274,5.85912963 L0.212541274,7.02903704 C0.212541274,7.23385185 0.378579009,7.39977778 0.58353184,7.39977778" id="Fill-25"></path>
        </g>
        <path d="M42.5499587,37.6005 C42.5499587,37.8221667 42.3690035,38.003 42.1471875,38.003 L3.77236439,38.003 C3.55054835,38.003 3.36959316,37.8221667 3.36959316,37.6005 L3.36959316,13.3273519 C3.36959316,13.1056852 3.55054835,12.9248519 3.77236439,12.9248519 L42.1471875,12.9248519 C42.3690035,12.9248519 42.5499587,13.1056852 42.5499587,13.3273519 L42.5499587,37.6005 Z M42.1471875,9.6005 L3.77236439,9.6005 C1.71570165,9.6005 0.0430011792,11.2720741 0.0430011792,13.3273519 L0.0430011792,37.6005 C0.0430011792,39.6557778 1.71570165,41.3273519 3.77236439,41.3273519 L21.9891686,41.3273519 L21.9891686,44.4203148 L14.5726002,44.4203148 C14.0368691,44.4203148 13.6023172,44.8545741 13.6023172,45.3899444 C13.6023172,45.9253148 14.0368691,46.3595741 14.5726002,46.3595741 L31.3469517,46.3595741 C31.8826828,46.3595741 32.3172347,45.9253148 32.3172347,45.3899444 C32.3172347,44.8545741 31.8826828,44.4203148 31.3469517,44.4203148 L23.9297347,44.4203148 L23.9297347,41.3273519 L42.1471875,41.3273519 C44.2032017,41.3273519 45.8765507,39.6557778 45.8765507,37.6005 L45.8765507,13.3273519 C45.8765507,11.2720741 44.2032017,9.6005 42.1471875,9.6005 L42.1471875,9.6005 Z" id="Fill-28" fill="#005A9E"></path>
    </g>
</svg>